<svg version="1.1" id="Layer_1" xmlns="http://www.w3.org/2000/svg" xmlns:xlink="http://www.w3.org/1999/xlink" x="0px" y="0px"
	 width="100%" viewBox="0 0 1024 544" enable-background="new 0 0 1024 544" xml:space="preserve">
<path fill="#0833C7" opacity="1.000000" stroke="none" 
	d="
M462.975128,121.011124 
	C463.183533,115.534554 462.468079,110.509865 463.759644,105.584000 
	C466.128418,96.549553 472.798370,90.929596 482.145477,90.850700 
	C502.642029,90.677689 523.141785,90.661125 543.638489,90.813652 
	C554.830200,90.896935 562.724365,98.541710 562.943909,110.182289 
	C563.317749,130.006149 563.041687,149.842117 563.061951,169.672958 
	C563.064636,172.319794 562.370605,173.908447 559.258484,174.371307 
	C548.172729,176.020035 538.886475,181.413040 530.880737,189.059326 
	C525.821350,193.891479 520.898560,198.874268 516.075073,203.942322 
	C513.843994,206.286484 512.198242,206.317383 509.935577,203.946060 
	C504.646179,198.402618 499.257660,192.942383 493.699524,187.669556 
	C486.521393,180.859818 477.942627,176.341003 468.249329,174.632782 
	C463.804077,173.849411 462.977478,171.898880 463.005554,168.002808 
	C463.117401,152.505600 463.004669,137.006775 462.975128,121.011124 
z"/>
<path fill="#0833C7" opacity="1.000000" stroke="none" 
	d="
M562.719849,285.747986 
	C562.932556,306.640320 563.235168,327.125275 562.939819,347.601624 
	C562.782104,358.540344 554.419312,366.147064 543.429138,366.195404 
	C523.275696,366.284027 503.121155,366.289307 482.967682,366.194672 
	C471.703857,366.141785 463.627655,359.230377 463.303955,347.864319 
	C462.735260,327.895142 463.140839,307.898010 463.157074,287.912598 
	C463.158661,285.961029 463.597900,284.235229 465.964020,283.869690 
	C483.450592,281.168243 495.368408,269.822815 506.559021,257.488739 
	C514.069641,249.210648 512.840454,250.729874 519.441223,257.512970 
	C528.265991,266.581512 536.897217,275.835876 549.037842,280.817963 
	C553.476929,282.639648 558.554565,282.373566 562.719849,285.747986 
z"/>
<path fill="#0833C7" opacity="1.000000" stroke="none" 
	d="
M496.305603,198.692047 
	C512.766602,215.482346 528.959290,232.039688 545.199280,248.550491 
	C551.300476,254.753448 558.154968,259.569122 567.341125,259.692535 
	C582.253357,259.892914 594.312561,249.315887 597.230103,233.478973 
	C599.753174,219.783447 591.213989,205.152893 578.096375,200.266083 
	C566.617737,195.989868 556.777161,199.150284 548.079956,206.784042 
	C542.832153,211.390167 537.993652,216.485779 533.203003,221.579391 
	C530.954102,223.970551 529.287659,224.153687 527.092407,221.695419 
	C524.764160,219.088165 522.298950,216.591293 519.758789,214.188705 
	C517.544983,212.094788 517.755371,210.369034 519.880737,208.341873 
	C525.786316,202.709091 531.311218,196.645096 537.489624,191.337128 
	C551.776184,179.063461 568.194397,176.171631 585.549805,183.171555 
	C603.199097,190.290024 613.160767,203.922226 615.432556,222.980606 
	C619.422058,256.449005 592.400269,279.910614 565.602112,278.292999 
	C551.851135,277.462982 540.951721,270.917145 531.578186,261.304993 
	C514.712830,244.010284 497.841614,226.721222 480.964020,209.438416 
	C474.187225,202.498901 466.334381,197.950424 456.249634,198.329697 
	C444.655579,198.765747 433.767426,207.562515 429.940216,219.640228 
	C425.922180,232.320084 430.513489,246.269424 441.357330,254.327881 
	C451.133514,261.592896 463.628540,261.720093 473.983551,254.500381 
	C481.012970,249.599319 486.390106,242.915985 492.334808,236.865326 
	C494.959961,234.193375 496.976074,233.328506 499.449677,236.808548 
	C500.308075,238.016205 501.506409,238.984421 502.562714,240.048828 
	C508.935547,246.470673 508.965485,246.498093 502.698425,252.757004 
	C497.515167,257.933502 492.723206,263.528320 486.863708,267.993256 
	C472.079773,279.258728 455.936462,281.768433 438.940247,274.123444 
	C422.096008,266.546814 412.650391,253.031860 410.699799,234.666611 
	C408.606995,214.962341 415.457489,198.877563 431.922577,187.632675 
	C449.490601,175.634598 471.694641,177.202576 487.968414,191.000854 
	C490.760010,193.367844 493.364929,195.955078 496.305603,198.692047 
z"/>
<path fill="#0833C7" opacity="1.000000" stroke="none" 
	d="
M619.839600,213.170288 
	C617.930298,205.893799 614.446472,199.866455 610.198608,194.250443 
	C605.967346,188.656326 600.595581,184.268204 594.662231,180.655014 
	C595.938171,178.069656 597.844849,178.900009 599.316650,178.886597 
	C609.804932,178.791061 620.294800,178.762238 630.783386,178.828262 
	C642.773438,178.903732 650.740173,186.227234 650.932190,198.299606 
	C651.252502,218.439804 651.245361,238.593750 650.885498,258.733124 
	C650.658325,271.451508 643.175720,278.290100 630.589722,278.338898 
	C619.137512,278.383301 607.685059,278.348297 595.646729,277.785522 
	C617.672119,261.357330 626.364563,240.250244 619.839600,213.170288 
z"/>
<path fill="#0833C7" opacity="1.000000" stroke="none" 
	d="
M414.993469,278.345154 
	C407.665344,278.337219 400.834290,278.410126 394.006134,278.302856 
	C383.404388,278.136292 375.749298,270.556488 375.636810,259.948608 
	C375.423126,239.797836 375.320251,219.645630 375.246582,199.493744 
	C375.199860,186.714020 383.017914,178.894882 395.794128,178.842224 
	C405.622131,178.801727 415.450623,178.803802 425.278442,178.860687 
	C427.023132,178.870804 428.948669,178.320877 431.054535,180.355103 
	C414.207550,192.073380 404.124695,207.663376 403.985901,228.569000 
	C403.847504,249.410141 413.577484,265.067535 430.203217,277.003662 
	C430.134460,277.450867 430.065704,277.898071 429.996948,278.345276 
	C425.161926,278.345276 420.326904,278.345276 414.993469,278.345154 
z"/>
<path fill="#0833C7" opacity="1.000000" stroke="none" 
	d="
M285.928772,460.084412 
	C285.928497,461.213654 285.929413,461.879730 285.915863,462.545563 
	C285.795593,468.478668 279.862183,471.732544 274.674927,468.708588 
	C272.723846,467.571167 272.960602,465.606262 272.955383,463.820404 
	C272.930511,455.329376 272.975525,446.838196 272.993225,438.347046 
	C272.997894,436.097168 272.993896,433.847321 272.993896,431.597443 
	C272.576904,431.522705 272.159943,431.447998 271.742950,431.373291 
	C267.967255,438.131104 264.200012,444.893707 260.410950,451.644012 
	C259.189026,453.820892 257.946503,455.987915 256.649658,458.120697 
	C253.237244,463.732727 249.042725,463.856964 245.708710,458.301025 
	C241.427383,451.166382 237.331818,443.920319 233.155838,436.722473 
	C232.164612,435.013916 231.171951,433.306244 229.912720,431.138062 
	C228.579697,433.039032 229.073517,434.720215 229.063904,436.233643 
	C229.004715,445.557068 228.909210,454.882996 229.063385,464.204163 
	C229.161682,470.146729 225.036331,469.009705 221.485184,469.244720 
	C217.749146,469.491913 216.024796,468.215942 216.053177,464.173676 
	C216.178085,446.381104 216.030975,428.586578 216.151672,410.793945 
	C216.168686,408.285675 214.688965,404.406250 218.912918,403.907623 
	C222.832825,403.444885 227.047928,402.517975 229.739838,407.521820 
	C235.099274,417.484253 240.977737,427.167908 246.664017,436.953796 
	C247.907394,439.093567 249.244019,441.179230 250.545486,443.302490 
	C253.336166,442.659729 253.854691,440.322906 254.862640,438.558777 
	C260.642639,428.442688 266.319214,418.267517 272.048401,408.122284 
	C274.316589,404.105774 279.891754,402.175751 283.876221,403.997681 
	C286.239929,405.078491 285.836914,407.321686 285.823669,409.212616 
	C285.753662,419.197083 285.455170,429.180511 285.439178,439.164612 
	C285.428223,445.983154 285.750153,452.802277 285.928772,460.084412 
z"/>
<path fill="#0833C7" opacity="1.000000" stroke="none" 
	d="
M361.791748,421.573639 
	C370.662140,417.091980 379.063568,417.388702 387.899841,422.555450 
	C389.225281,416.950836 388.811981,411.520081 388.551392,406.220917 
	C388.305725,401.225708 390.342834,399.962463 394.931427,399.971924 
	C399.579132,399.981537 401.353394,401.431061 401.291016,406.331055 
	C401.051788,425.121796 401.240753,443.917664 401.154633,462.711090 
	C401.143646,465.112183 402.357788,468.823700 398.322327,468.986847 
	C394.643860,469.135468 389.767975,471.442841 388.111542,465.417969 
	C373.668884,474.492126 359.559357,467.959259 354.170929,459.071228 
	C346.644684,446.656982 349.804108,430.100861 361.791748,421.573639 
M385.869629,434.764160 
	C381.025543,429.573456 376.036255,428.142853 370.846741,430.456635 
	C365.179565,432.983337 362.455933,438.852509 363.250793,446.824982 
	C363.838104,452.715302 367.561279,456.820160 373.421082,458.184875 
	C375.095734,458.574921 376.653595,458.499207 378.305328,458.042999 
	C387.792328,455.422607 391.059418,446.227631 385.869629,434.764160 
z"/>
<path fill="#0833C7" opacity="1.000000" stroke="none" 
	d="
M466.296265,470.021210 
	C447.918976,468.634247 437.003143,455.547729 435.171722,440.371063 
	C433.582520,427.201904 440.668976,412.812347 452.631897,406.499878 
	C464.702759,400.130493 480.628448,402.111053 490.493073,410.981445 
	C493.201019,413.416443 492.794983,415.026947 490.505249,417.497925 
	C487.184387,421.081696 484.735657,422.689850 480.021271,418.728790 
	C473.046814,412.868713 461.671600,413.857727 455.092010,419.759521 
	C447.875305,426.232819 446.145081,438.862976 451.239258,447.883850 
	C455.838501,456.028320 465.581665,460.187714 474.389282,456.868530 
	C479.004181,455.129395 483.563538,456.137146 488.091034,455.358032 
	C489.790710,455.065552 491.405365,456.143341 492.154541,457.762390 
	C493.076416,459.754700 491.332428,460.808838 490.174347,461.892365 
	C483.578278,468.063721 475.521149,470.125793 466.296265,470.021210 
z"/>
<path fill="#0833C7" opacity="1.000000" stroke="none" 
	d="
M340.621460,459.085205 
	C342.216309,461.861359 340.124084,463.029480 338.736694,464.274719 
	C330.054993,472.067108 313.167877,471.580658 303.680573,463.342133 
	C294.041992,454.972351 292.326202,440.221222 299.663788,428.808899 
	C305.888092,419.128082 320.067261,415.427795 331.240967,420.568329 
	C339.871918,424.539062 345.683624,434.838745 344.804138,444.286041 
	C344.502594,447.525116 342.837067,448.385651 339.847992,448.342041 
	C331.362122,448.218170 322.873108,448.259827 314.385895,448.318146 
	C312.624146,448.330261 310.731445,447.808502 309.118652,449.015778 
	C311.208832,459.279877 322.011963,461.232269 334.621338,453.601105 
	C337.161835,454.607330 338.476379,457.074890 340.621460,459.085205 
M331.439972,436.817810 
	C328.450592,430.609894 324.242371,428.268280 317.936676,429.303955 
	C313.052338,430.106232 309.805542,433.462769 309.030640,439.179596 
	C316.125153,439.668396 323.139465,440.173126 330.180573,438.912598 
	C330.669067,438.825134 331.025848,438.001801 331.439972,436.817810 
z"/>
<path fill="#0833C7" opacity="1.000000" stroke="none" 
	d="
M705.515808,468.966339 
	C693.297302,471.069794 682.832153,469.057068 675.573181,458.511353 
	C669.340454,449.456451 669.982239,436.112793 676.803101,427.134216 
	C682.691284,419.383453 694.491638,416.249115 704.914429,419.667603 
	C715.243408,423.055298 722.211365,434.746826 720.449768,445.316193 
	C719.983459,448.113892 718.344849,448.301880 716.230408,448.301239 
	C707.912231,448.298737 699.594055,448.289490 691.276001,448.318787 
	C689.476685,448.325134 687.622070,448.046204 685.935913,448.877258 
	C685.814270,454.932800 693.093079,459.737946 700.378601,458.427124 
	C703.355286,457.891541 706.011108,456.578918 708.498474,454.789978 
	C712.795776,451.699432 713.574890,456.769653 715.823242,458.252869 
	C717.993652,459.684631 717.452576,461.460236 715.755920,463.238251 
	C713.007935,466.117950 709.599426,467.698486 705.515808,468.966339 
M707.059387,438.238892 
	C706.326294,432.510773 702.721619,429.352325 696.708435,429.169312 
	C690.395447,428.977173 686.339355,432.120911 684.942017,438.763000 
	C692.189026,439.857330 699.349426,440.235687 707.059387,438.238892 
z"/>
<path fill="#0833C7" opacity="1.000000" stroke="none" 
	d="
M513.981812,468.417114 
	C502.582581,463.795898 496.242706,454.127991 496.779144,442.671265 
	C497.309082,431.354218 504.328644,422.133026 514.550293,419.326385 
	C525.959717,416.193573 537.555786,420.069702 543.789001,429.099884 
	C549.698364,437.660797 549.500977,450.791443 543.329529,459.672516 
	C537.307678,468.338165 526.485596,471.644501 513.981812,468.417114 
M534.138733,437.556335 
	C530.555542,431.401367 525.788574,428.588928 520.555115,429.542236 
	C514.462524,430.652039 510.365234,435.507385 509.488892,442.655975 
	C508.839600,447.952484 511.942993,454.284760 516.347595,456.650726 
	C521.246521,459.282166 526.827271,458.977448 530.697754,455.258606 
	C535.610901,450.537903 536.484619,444.655151 534.138733,437.556335 
z"/>
<path fill="#0833C7" opacity="1.000000" stroke="none" 
	d="
M590.546509,436.946686 
	C587.463562,430.862762 584.087402,429.115356 578.392700,430.295471 
	C573.205078,431.370514 569.536316,435.900177 569.380249,442.010620 
	C569.188965,449.500305 569.096191,457.005585 569.367981,464.489319 
	C569.545044,469.365509 566.680969,469.335999 563.271301,469.260529 
	C559.879700,469.185516 556.558044,469.737152 556.648560,464.424744 
	C556.872620,451.272003 556.685364,438.112671 556.764832,424.956635 
	C556.777771,422.805939 555.754456,419.591064 559.020020,419.190094 
	C562.257812,418.792572 565.988770,417.405609 568.795288,420.677734 
	C569.205750,421.156219 569.563538,421.679810 570.129761,422.424652 
	C575.539307,419.190308 581.203003,417.764404 587.393616,418.608032 
	C595.839355,419.758911 602.104858,425.771912 603.297058,434.156036 
	C604.758728,444.435760 603.868408,454.772186 603.985352,465.083405 
	C604.042786,470.150787 600.181213,469.067352 597.171448,469.210785 
	C593.988525,469.362488 591.077454,469.295258 591.054382,464.811005 
	C591.007324,455.658081 590.785400,446.506073 590.546509,436.946686 
z"/>
<path fill="#0833C7" opacity="1.000000" stroke="none" 
	d="
M662.280273,434.184875 
	C663.654724,444.548706 662.821289,454.538818 663.012451,464.506165 
	C663.129517,470.608032 658.621033,468.927704 655.248596,469.262268 
	C651.543213,469.629852 650.340393,468.103973 650.496460,464.351837 
	C650.793457,457.212097 650.798279,450.042145 650.515320,442.900940 
	C650.176575,434.349976 646.708069,430.224213 640.325317,429.998230 
	C633.661682,429.762329 628.587219,434.638336 628.365112,441.952301 
	C628.138062,449.430847 628.107483,456.926880 628.346436,464.403870 
	C628.499451,469.193512 625.678833,469.298401 622.231934,469.242523 
	C618.795837,469.186768 615.558655,469.605682 615.643127,464.361084 
	C615.851929,451.390320 615.629944,438.413116 615.739197,425.439819 
	C615.759216,423.065002 614.390320,419.341827 618.450806,419.099457 
	C622.018127,418.886536 626.755371,416.688873 628.504272,422.856537 
	C636.269775,418.019958 644.267944,416.790680 652.698669,420.554932 
	C658.460632,423.127625 660.868530,428.051392 662.280273,434.184875 
z"/>
<path fill="#0833C7" opacity="1.000000" stroke="none" 
	d="
M757.711792,431.121124 
	C749.234436,427.838440 741.709351,431.151611 739.456665,438.826874 
	C736.719788,448.151794 741.084900,456.432220 749.740906,458.246826 
	C754.253296,459.192749 757.843018,457.443604 760.923645,454.259247 
	C763.430542,451.667786 767.742493,452.332825 771.442200,456.048767 
	C774.204102,458.822784 771.293396,460.614929 769.843994,462.263641 
	C762.520630,470.594360 748.367188,472.344086 738.234070,466.349670 
	C727.538574,460.022552 723.215515,447.563110 727.385193,435.082397 
	C733.229065,417.590454 757.553650,412.200500 769.724548,425.734924 
	C771.319702,427.508820 773.989990,429.861755 770.629333,431.816223 
	C767.866821,433.422882 765.345459,438.586731 760.991333,433.978485 
	C760.082703,433.016846 759.025269,432.195740 757.711792,431.121124 
z"/>
<path fill="#0833C7" opacity="1.000000" stroke="none" 
	d="
M777.371094,429.692505 
	C773.385925,427.637299 774.980652,424.328552 775.067810,421.578613 
	C775.145203,419.136383 777.463196,419.123291 779.263184,419.074402 
	C782.681274,418.981476 782.575134,416.683136 782.736328,414.228851 
	C782.877319,412.080292 781.551453,409.032135 784.508911,408.111328 
	C787.484253,407.184967 790.848328,407.115112 793.826965,408.248322 
	C795.889771,409.033142 795.390991,411.450073 795.210754,413.152191 
	C794.723328,417.756927 796.577393,419.365265 801.160522,419.183411 
	C806.851685,418.957550 809.018616,422.373474 807.181458,427.737671 
	C806.375000,430.092529 804.392822,429.950775 802.667236,429.871857 
	C793.686523,429.461090 795.344971,431.678131 795.271667,437.842438 
	C795.216248,442.498505 795.178711,447.157532 795.280640,451.812012 
	C795.401306,457.318359 798.185608,459.870667 803.214722,458.155884 
	C808.325989,456.413116 808.138000,460.045959 809.305298,462.788696 
	C810.727783,466.131104 809.278442,467.710754 806.211792,468.662750 
	C795.697266,471.926788 781.874084,469.035217 782.638733,452.313507 
	C782.896790,446.670654 782.468567,440.995300 782.756714,435.355377 
	C782.952393,431.525391 781.599121,429.719360 777.371094,429.692505 
z"/>
<path fill="#0833C7" opacity="1.000000" stroke="none" 
	d="
M421.659973,418.848022 
	C424.583588,418.807953 425.676178,419.943359 425.616089,422.507538 
	C425.292755,436.308319 425.162903,450.112030 425.949982,463.902527 
	C426.189850,468.105865 424.271271,469.465515 420.266205,469.259796 
	C416.541168,469.068481 412.822662,469.815216 412.922729,463.994324 
	C413.134277,451.688080 412.961121,439.375427 412.972137,427.065399 
	C412.979523,418.830139 412.999847,418.830170 421.659973,418.848022 
z"/>
<path fill="#0833C7" opacity="1.000000" stroke="none" 
	d="
M412.500183,401.869171 
	C414.528473,397.998779 417.697388,397.223022 421.195282,397.795319 
	C425.454132,398.492126 427.451630,401.288208 427.292542,405.580414 
	C427.127777,410.025848 424.486969,412.184479 420.346924,412.652435 
	C416.083313,413.134369 412.465057,410.506409 411.844727,406.654083 
	C411.603638,405.156952 411.694214,403.660706 412.500183,401.869171 
z"/>
</svg>